<svg width="135" height="120" viewBox="0 0 135 120" fill="none" xmlns="http://www.w3.org/2000/svg">
<path d="M22.4031 109.824C22.4031 114.891 23.4031 118.491 25.4031 120.624C27.5365 122.624 30.3365 123.624 33.8031 123.624C37.2698 123.624 40.0031 122.624 42.0031 120.624C44.1365 118.491 45.2031 114.891 45.2031 109.824V34.2242C45.2031 29.1575 44.1365 25.6242 42.0031 23.6242C40.0031 21.4908 37.2698 20.4242 33.8031 20.4242C30.3365 20.4242 27.5365 21.4908 25.4031 23.6242C23.4031 25.6242 22.4031 29.1575 22.4031 34.2242V109.824ZM0.403125 35.6242C0.403125 24.2908 3.26979 15.6242 9.00313 9.62416C14.7365 3.49083 23.0031 0.424169 33.8031 0.424169C44.6031 0.424169 52.8698 3.49083 58.6031 9.62416C64.3365 15.6242 67.2031 24.2908 67.2031 35.6242V108.424C67.2031 119.758 64.3365 128.491 58.6031 134.624C52.8698 140.624 44.6031 143.624 33.8031 143.624C23.0031 143.624 14.7365 140.624 9.00313 134.624C3.26979 128.491 0.403125 119.758 0.403125 108.424V35.6242ZM95.1 19.6242C99.3667 19.6242 102.833 19.1575 105.5 18.2242C108.3 17.2908 110.567 16.0242 112.3 14.4242C114.033 12.8242 115.433 10.9575 116.5 8.82417C117.567 6.69083 118.5 4.42416 119.3 2.02416H134.1V142.024H112.1V35.2242H95.1V19.6242Z" fill="url(#paint0_linear_134_20)"/>
<defs>
<linearGradient id="paint0_linear_134_20" x1="73.5" y1="2.02417" x2="73.5" y2="142.024" gradientUnits="userSpaceOnUse">
<stop offset="0.369792" stop-color="#5086E1" stop-opacity="0.57"/>
<stop offset="1" stop-color="#F2F2F2"/>
</linearGradient>
</defs>
</svg>
