<svg width="147" height="120" viewBox="0 0 147 120" fill="none" xmlns="http://www.w3.org/2000/svg">
<path d="M22.5888 109.824C22.5888 114.891 23.5888 118.491 25.5888 120.624C27.7221 122.624 30.5221 123.624 33.9888 123.624C37.4555 123.624 40.1888 122.624 42.1888 120.624C44.3221 118.491 45.3888 114.891 45.3888 109.824V34.2242C45.3888 29.1575 44.3221 25.6242 42.1888 23.6242C40.1888 21.4908 37.4555 20.4242 33.9888 20.4242C30.5221 20.4242 27.7221 21.4908 25.5888 23.6242C23.5888 25.6242 22.5888 29.1575 22.5888 34.2242V109.824ZM0.588794 35.6242C0.588794 24.2908 3.45546 15.6242 9.18879 9.62416C14.9221 3.49083 23.1888 0.424169 33.9888 0.424169C44.7888 0.424169 53.0555 3.49083 58.7888 9.62416C64.5221 15.6242 67.3888 24.2908 67.3888 35.6242V108.424C67.3888 119.758 64.5221 128.491 58.7888 134.624C53.0555 140.624 44.7888 143.624 33.9888 143.624C23.1888 143.624 14.9221 140.624 9.18879 134.624C3.45546 128.491 0.588794 119.758 0.588794 108.424V35.6242ZM124.086 36.4242C124.086 30.1575 123.019 25.9575 120.886 23.8242C118.886 21.5575 116.152 20.4242 112.686 20.4242C109.219 20.4242 106.419 21.4908 104.286 23.6242C102.286 25.6242 101.286 29.1575 101.286 34.2242V43.2242H80.4857V35.6242C80.4857 24.2908 83.219 15.6242 88.6857 9.62416C94.2857 3.49083 102.486 0.424169 113.286 0.424169C124.086 0.424169 132.219 3.49083 137.686 9.62416C143.286 15.6242 146.086 24.2908 146.086 35.6242V39.2242C146.086 54.1575 140.952 63.7575 130.686 68.0242C136.286 70.4242 140.219 74.1575 142.486 79.2242C144.886 84.1575 146.086 90.2242 146.086 97.4242V108.424C146.086 119.758 143.286 128.491 137.686 134.624C132.219 140.624 124.086 143.624 113.286 143.624C102.486 143.624 94.2857 140.624 88.6857 134.624C83.219 128.491 80.4857 119.758 80.4857 108.424V96.8242H101.286V109.824C101.286 114.891 102.286 118.491 104.286 120.624C106.419 122.624 109.219 123.624 112.686 123.624C116.152 123.624 118.886 122.558 120.886 120.424C123.019 118.291 124.086 114.091 124.086 107.824V96.8242C124.086 90.2908 122.952 85.6908 120.686 83.0242C118.419 80.3575 114.752 79.0242 109.686 79.0242H102.286V59.0242H110.886C115.019 59.0242 118.219 57.9575 120.486 55.8242C122.886 53.6908 124.086 49.8242 124.086 44.2242V36.4242Z" fill="url(#paint0_linear_134_22)"/>
<defs>
<linearGradient id="paint0_linear_134_22" x1="73.6857" y1="2.02417" x2="73.6857" y2="142.024" gradientUnits="userSpaceOnUse">
<stop offset="0.369792" stop-color="#5086E1" stop-opacity="0.57"/>
<stop offset="1" stop-color="#F2F2F2"/>
</linearGradient>
</defs>
</svg>
