<svg width="151" height="120" viewBox="0 0 151 120" fill="none" xmlns="http://www.w3.org/2000/svg">
<path d="M22.5888 110.212C22.5888 115.279 23.5888 118.879 25.5888 121.012C27.7221 123.012 30.5221 124.012 33.9888 124.012C37.4555 124.012 40.1888 123.012 42.1888 121.012C44.3221 118.879 45.3888 115.279 45.3888 110.212V34.6119C45.3888 29.5452 44.3221 26.0119 42.1888 24.0119C40.1888 21.8785 37.4555 20.8119 33.9888 20.8119C30.5221 20.8119 27.7221 21.8785 25.5888 24.0119C23.5888 26.0119 22.5888 29.5452 22.5888 34.6119V110.212ZM0.588794 36.0119C0.588794 24.6785 3.45546 16.0119 9.18879 10.0119C14.9221 3.87853 23.1888 0.811864 33.9888 0.811864C44.7888 0.811864 53.0555 3.87853 58.7888 10.0119C64.5221 16.0119 67.3888 24.6785 67.3888 36.0119V108.812C67.3888 120.145 64.5221 128.879 58.7888 135.012C53.0555 141.012 44.7888 144.012 33.9888 144.012C23.1888 144.012 14.9221 141.012 9.18879 135.012C3.45546 128.879 0.588794 120.145 0.588794 108.812V36.0119ZM76.4857 97.0119L116.486 2.41186H140.486V97.0119H150.886V117.012H140.486V142.412H118.886V117.012H76.4857V97.0119ZM118.886 97.0119V44.4119L96.6857 97.0119H118.886Z" fill="url(#paint0_linear_134_23)"/>
<defs>
<linearGradient id="paint0_linear_134_23" x1="73.6857" y1="2.41187" x2="73.6857" y2="142.412" gradientUnits="userSpaceOnUse">
<stop offset="0.369792" stop-color="#5086E1" stop-opacity="0.57"/>
<stop offset="1" stop-color="#F2F2F2"/>
</linearGradient>
</defs>
</svg>
