<svg width="146" height="120" viewBox="0 0 146 120" fill="none" xmlns="http://www.w3.org/2000/svg">
<path d="M22.0918 109.8C22.0918 114.867 23.0918 118.467 25.0918 120.6C27.2252 122.6 30.0252 123.6 33.4918 123.6C36.9585 123.6 39.6918 122.6 41.6918 120.6C43.8252 118.467 44.8919 114.867 44.8919 109.8V34.2C44.8919 29.1333 43.8252 25.6 41.6918 23.6C39.6918 21.4667 36.9585 20.4 33.4918 20.4C30.0252 20.4 27.2252 21.4667 25.0918 23.6C23.0918 25.6 22.0918 29.1333 22.0918 34.2V109.8ZM0.091846 35.6C0.091846 24.2667 2.95851 15.6 8.69185 9.59999C14.4252 3.46666 22.6918 0.399999 33.4918 0.399999C44.2918 0.399999 52.5585 3.46666 58.2919 9.59999C64.0252 15.6 66.8918 24.2667 66.8918 35.6V108.4C66.8918 119.733 64.0252 128.467 58.2919 134.6C52.5585 140.6 44.2918 143.6 33.4918 143.6C22.6918 143.6 14.4252 140.6 8.69185 134.6C2.95851 128.467 0.091846 119.733 0.091846 108.4V35.6ZM100.989 96.8V109.8C100.989 114.867 101.989 118.4 103.989 120.4C106.122 122.4 108.922 123.4 112.389 123.4C115.855 123.4 118.589 122.4 120.589 120.4C122.722 118.4 123.789 114.867 123.789 109.8V79C123.789 73.9333 122.722 70.4 120.589 68.4C118.589 66.2667 115.855 65.2 112.389 65.2C108.922 65.2 106.122 66.2667 103.989 68.4C101.989 70.4 100.989 73.9333 100.989 79V83.2H80.1887L84.1887 1.99999H142.189V22H103.989L102.189 55.4C106.322 48.6 112.722 45.2 121.389 45.2C129.522 45.2 135.589 47.9333 139.589 53.4C143.722 58.8667 145.789 66.8 145.789 77.2V108.4C145.789 119.733 142.989 128.467 137.389 134.6C131.922 140.6 123.789 143.6 112.989 143.6C102.189 143.6 93.9887 140.6 88.3887 134.6C82.9221 128.467 80.1887 119.733 80.1887 108.4V96.8H100.989Z" fill="url(#paint0_linear_134_41)"/>
<defs>
<linearGradient id="paint0_linear_134_41" x1="73.1887" y1="2" x2="73.1887" y2="142" gradientUnits="userSpaceOnUse">
<stop offset="0.463542" stop-color="#F2F2F2"/>
<stop offset="1" stop-color="#5086E1" stop-opacity="0.57"/>
</linearGradient>
</defs>
</svg>
