<svg width="148" height="120" viewBox="0 0 148 120" fill="none" xmlns="http://www.w3.org/2000/svg">
<path d="M22.7745 109.8C22.7745 114.867 23.7745 118.467 25.7745 120.6C27.9079 122.6 30.7079 123.6 34.1745 123.6C37.6412 123.6 40.3745 122.6 42.3745 120.6C44.5079 118.467 45.5745 114.867 45.5745 109.8V34.2C45.5745 29.1333 44.5079 25.6 42.3745 23.6C40.3745 21.4667 37.6412 20.4 34.1745 20.4C30.7079 20.4 27.9079 21.4667 25.7745 23.6C23.7745 25.6 22.7745 29.1333 22.7745 34.2V109.8ZM0.774524 35.6C0.774524 24.2667 3.64119 15.6 9.37452 9.59999C15.1079 3.46666 23.3745 0.399999 34.1745 0.399999C44.9745 0.399999 53.2412 3.46666 58.9745 9.59999C64.7079 15.6 67.5745 24.2667 67.5745 35.6V108.4C67.5745 119.733 64.7079 128.467 58.9745 134.6C53.2412 140.6 44.9745 143.6 34.1745 143.6C23.3745 143.6 15.1079 140.6 9.37452 134.6C3.64119 128.467 0.774524 119.733 0.774524 108.4V35.6ZM80.4714 36.8C80.4714 24.9333 83.2047 15.9333 88.6714 9.8C94.1381 3.53333 102.605 0.399999 114.071 0.399999C124.871 0.399999 133.005 3.46666 138.471 9.59999C144.071 15.6 146.871 24.2667 146.871 35.6V39.2H126.071V34.2C126.071 29.1333 125.005 25.6 122.871 23.6C120.871 21.4667 118.138 20.4 114.671 20.4C110.805 20.4 107.805 21.6 105.671 24C103.538 26.4 102.471 30.9333 102.471 37.6V63.2C106.338 54.9333 113.138 50.8 122.871 50.8C131.005 50.8 137.071 53.5333 141.071 59C145.205 64.4667 147.271 72.4 147.271 82.8V108.4C147.271 119.733 144.405 128.467 138.671 134.6C132.938 140.6 124.671 143.6 113.871 143.6C103.071 143.6 94.8047 140.6 89.0714 134.6C83.3381 128.467 80.4714 119.733 80.4714 108.4V36.8ZM113.871 70.8C110.405 70.8 107.605 71.8667 105.471 74C103.471 76 102.471 79.5333 102.471 84.6V109.8C102.471 114.867 103.471 118.4 105.471 120.4C107.605 122.4 110.405 123.4 113.871 123.4C117.338 123.4 120.071 122.4 122.071 120.4C124.205 118.4 125.271 114.867 125.271 109.8V84.6C125.271 79.5333 124.205 76 122.071 74C120.071 71.8667 117.338 70.8 113.871 70.8Z" fill="url(#paint0_linear_134_25)"/>
<defs>
<linearGradient id="paint0_linear_134_25" x1="73.8714" y1="2" x2="73.8714" y2="142" gradientUnits="userSpaceOnUse">
<stop offset="0.369792" stop-color="#5086E1" stop-opacity="0.57"/>
<stop offset="1" stop-color="#F2F2F2"/>
</linearGradient>
</defs>
</svg>
