<svg width="147" height="120" viewBox="0 0 147 120" fill="none" xmlns="http://www.w3.org/2000/svg">
<path d="M22.4782 109.824C22.4782 114.891 23.4782 118.491 25.4782 120.624C27.6115 122.624 30.4115 123.624 33.8782 123.624C37.3449 123.624 40.0782 122.624 42.0782 120.624C44.2115 118.491 45.2782 114.891 45.2782 109.824V34.2242C45.2782 29.1575 44.2115 25.6242 42.0782 23.6242C40.0782 21.4908 37.3449 20.4242 33.8782 20.4242C30.4115 20.4242 27.6115 21.4908 25.4782 23.6242C23.4782 25.6242 22.4782 29.1575 22.4782 34.2242V109.824ZM0.478199 35.6242C0.478199 24.2908 3.34487 15.6242 9.0782 9.62416C14.8115 3.49083 23.0782 0.424169 33.8782 0.424169C44.6782 0.424169 52.9449 3.49083 58.6782 9.62416C64.4115 15.6242 67.2782 24.2908 67.2782 35.6242V108.424C67.2782 119.758 64.4115 128.491 58.6782 134.624C52.9449 140.624 44.6782 143.624 33.8782 143.624C23.0782 143.624 14.8115 140.624 9.0782 134.624C3.34487 128.491 0.478199 119.758 0.478199 108.424V35.6242ZM146.175 2.02416V21.2242L113.775 142.024H91.7751L123.975 22.0242H80.1751V2.02416H146.175Z" fill="url(#paint0_linear_134_32)"/>
<defs>
<linearGradient id="paint0_linear_134_32" x1="73.5751" y1="2.02417" x2="73.5751" y2="142.024" gradientUnits="userSpaceOnUse">
<stop offset="0.369792" stop-color="#5086E1" stop-opacity="0.57"/>
<stop offset="1" stop-color="#F2F2F2"/>
</linearGradient>
</defs>
</svg>
