<svg width="148" height="120" viewBox="0 0 148 120" fill="none" xmlns="http://www.w3.org/2000/svg">
<path d="M22.4782 109.8C22.4782 114.867 23.4782 118.467 25.4782 120.6C27.6115 122.6 30.4115 123.6 33.8782 123.6C37.3449 123.6 40.0782 122.6 42.0782 120.6C44.2115 118.467 45.2782 114.867 45.2782 109.8V34.2C45.2782 29.1333 44.2115 25.6 42.0782 23.6C40.0782 21.4667 37.3449 20.4 33.8782 20.4C30.4115 20.4 27.6115 21.4667 25.4782 23.6C23.4782 25.6 22.4782 29.1333 22.4782 34.2V109.8ZM0.478199 35.6C0.478199 24.2667 3.34487 15.6 9.0782 9.59999C14.8115 3.46666 23.0782 0.399999 33.8782 0.399999C44.6782 0.399999 52.9449 3.46666 58.6782 9.59999C64.4115 15.6 67.2782 24.2667 67.2782 35.6V108.4C67.2782 119.733 64.4115 128.467 58.6782 134.6C52.9449 140.6 44.6782 143.6 33.8782 143.6C23.0782 143.6 14.8115 140.6 9.0782 134.6C3.34487 128.467 0.478199 119.733 0.478199 108.4V35.6ZM147.575 108.4C147.575 119.733 144.642 128.467 138.775 134.6C132.908 140.6 124.375 143.6 113.175 143.6C101.975 143.6 93.4417 140.6 87.5751 134.6C81.7084 128.467 78.7751 119.733 78.7751 108.4V97.4C78.7751 90.6 79.8417 84.7333 81.9751 79.8C84.1084 74.7333 87.5751 70.8667 92.3751 68.2C83.3084 63.2667 78.7751 53.8667 78.7751 40V35.6C78.7751 24.2667 81.7084 15.6 87.5751 9.59999C93.4417 3.46666 101.975 0.399999 113.175 0.399999C124.375 0.399999 132.908 3.46666 138.775 9.59999C144.642 15.6 147.575 24.2667 147.575 35.6V40C147.575 53.7333 143.042 63.1333 133.975 68.2C138.775 70.8667 142.242 74.7333 144.375 79.8C146.508 84.7333 147.575 90.6 147.575 97.4V108.4ZM100.775 107.8C100.775 114.067 101.975 118.267 104.375 120.4C106.775 122.533 109.708 123.6 113.175 123.6C116.642 123.6 119.508 122.533 121.775 120.4C124.175 118.267 125.442 114.067 125.575 107.8V94.8C125.575 89.2 124.442 85.2 122.175 82.8C120.042 80.2667 117.042 79 113.175 79C109.308 79 106.242 80.2667 103.975 82.8C101.842 85.2 100.775 89.2 100.775 94.8V107.8ZM100.775 44.2C100.775 49.8 101.908 53.6667 104.175 55.8C106.575 57.9333 109.575 59 113.175 59C116.642 59 119.575 57.9333 121.975 55.8C124.375 53.6667 125.575 49.8 125.575 44.2V36.4C125.575 30.1333 124.375 25.9333 121.975 23.8C119.575 21.5333 116.642 20.4 113.175 20.4C109.708 20.4 106.775 21.5333 104.375 23.8C101.975 25.9333 100.775 30.1333 100.775 36.4V44.2Z" fill="url(#paint0_linear_134_35)"/>
<defs>
<linearGradient id="paint0_linear_134_35" x1="73.5751" y1="2" x2="73.5751" y2="142" gradientUnits="userSpaceOnUse">
<stop offset="0.369792" stop-color="#5086E1" stop-opacity="0.57"/>
<stop offset="1" stop-color="#F2F2F2"/>
</linearGradient>
</defs>
</svg>
