<svg width="32" height="38" viewBox="0 0 32 38" fill="none" xmlns="http://www.w3.org/2000/svg">
<g clip-path="url(#clip0_135_25)" filter="url(#filter0_d_135_25)">
<g filter="url(#filter1_d_135_25)">
<path d="M16 4C9.38357 4 4.00012 9.3835 4.00012 15.9925C3.95662 25.66 15.544 33.676 16 34C16 34 28.0434 25.66 27.9999 16C27.9999 9.3835 22.6164 4 16 4ZM16 22C12.685 22 10.0001 19.315 10.0001 16C10.0001 12.685 12.685 10 16 10C19.315 10 21.9999 12.685 21.9999 16C21.9999 19.315 19.315 22 16 22Z" fill="white"/>
</g>
</g>
<defs>
<filter id="filter0_d_135_25" x="-3" y="0" width="38" height="38" filterUnits="userSpaceOnUse" color-interpolation-filters="sRGB">
<feFlood flood-opacity="0" result="BackgroundImageFix"/>
<feColorMatrix in="SourceAlpha" type="matrix" values="0 0 0 0 0 0 0 0 0 0 0 0 0 0 0 0 0 0 127 0" result="hardAlpha"/>
<feOffset/>
<feGaussianBlur stdDeviation="2"/>
<feComposite in2="hardAlpha" operator="out"/>
<feColorMatrix type="matrix" values="0 0 0 0 1 0 0 0 0 1 0 0 0 0 1 0 0 0 0.25 0"/>
<feBlend mode="normal" in2="BackgroundImageFix" result="effect1_dropShadow_135_25"/>
<feBlend mode="normal" in="SourceGraphic" in2="effect1_dropShadow_135_25" result="shape"/>
</filter>
<filter id="filter1_d_135_25" x="0" y="0" width="32" height="38" filterUnits="userSpaceOnUse" color-interpolation-filters="sRGB">
<feFlood flood-opacity="0" result="BackgroundImageFix"/>
<feColorMatrix in="SourceAlpha" type="matrix" values="0 0 0 0 0 0 0 0 0 0 0 0 0 0 0 0 0 0 127 0" result="hardAlpha"/>
<feOffset/>
<feGaussianBlur stdDeviation="2"/>
<feComposite in2="hardAlpha" operator="out"/>
<feColorMatrix type="matrix" values="0 0 0 0 1 0 0 0 0 1 0 0 0 0 1 0 0 0 0.45 0"/>
<feBlend mode="normal" in2="BackgroundImageFix" result="effect1_dropShadow_135_25"/>
<feBlend mode="normal" in="SourceGraphic" in2="effect1_dropShadow_135_25" result="shape"/>
</filter>
<clipPath id="clip0_135_25">
<rect width="30" height="30" fill="white" transform="translate(1 4)"/>
</clipPath>
</defs>
</svg>
